<svg width="138" height="34" viewBox="0 0 138 34" fill="none" xmlns="http://www.w3.org/2000/svg">
<path d="M0 22V0.759999H3.24V22H0ZM4.32 22V0.759999H7.56V22H4.32ZM8.64 22V0.759999H9.72V22H8.64ZM12.96 22V0.759999H14.04V22H12.96ZM15.12 22V0.759999H16.2V22H15.12ZM9.108 33.628C8.484 33.628 7.932 33.472 7.452 33.16C6.948 32.848 6.552 32.38 6.264 31.756C5.976 31.108 5.832 30.304 5.832 29.344C5.832 28.336 5.988 27.508 6.3 26.86C6.612 26.236 7.008 25.78 7.488 25.492C7.968 25.228 8.484 25.096 9.036 25.096C9.636 25.096 10.152 25.24 10.584 25.528C11.016 25.816 11.34 26.212 11.556 26.716L10.764 27.112L10.656 27.148L10.62 27.076V26.968C10.62 26.872 10.56 26.74 10.44 26.572C10.248 26.308 10.032 26.116 9.792 25.996C9.552 25.876 9.3 25.816 9.036 25.816C8.316 25.816 7.752 26.128 7.344 26.752C6.96 27.352 6.768 28.204 6.768 29.308C6.768 29.98 6.864 30.592 7.056 31.144C7.272 31.672 7.548 32.08 7.884 32.368C8.244 32.656 8.64 32.8 9.072 32.8C9.408 32.8 9.72 32.716 10.008 32.548C10.32 32.356 10.572 32.104 10.764 31.792L11.448 32.26C11.16 32.716 10.836 33.052 10.476 33.268C10.092 33.508 9.636 33.628 9.108 33.628ZM17.2969 22V0.759999H20.5369V22H17.2969ZM21.6169 22V0.759999H22.6969V22H21.6169ZM23.7769 22V0.759999H24.8569V22H23.7769ZM28.0969 22V0.759999H31.3369V22H28.0969ZM32.4169 22V0.759999H33.4969V22H32.4169ZM23.2729 25.132H24.3529V25.24C24.3049 25.288 24.2689 25.348 24.2449 25.42C24.2449 25.468 24.2449 25.576 24.2449 25.744V28.696H27.4849V25.132H28.6009V25.24C28.5529 25.288 28.5169 25.348 28.4929 25.42C28.4929 25.468 28.4929 25.576 28.4929 25.744V33.484H27.4849V29.524H24.2449V33.484H23.2729V25.132ZM34.5938 22V0.759999H37.8338V22H34.5938ZM38.9138 22V0.759999H39.9938V22H38.9138ZM41.0738 22V0.759999H42.1538V22H41.0738ZM45.3938 22V0.759999H46.4738V22H45.3938ZM47.5538 22V0.759999H50.7938V22H47.5538ZM44.5658 31.036H41.8658L41.0378 33.484H40.1018L43.1618 24.988H43.2698L46.3658 33.484H45.3938L44.5658 31.036ZM44.3138 30.316L43.2338 27.148L42.1178 30.316H44.3138ZM51.8906 22V0.759999H52.9706V22H51.8906ZM54.0506 22V0.759999H57.2906V22H54.0506ZM58.3706 22V0.759999H59.4506V22H58.3706ZM62.6906 22V0.759999H65.9306V22H62.6906ZM67.0106 22V0.759999H68.0906V22H67.0106ZM58.2626 32.692H59.9186V25.924H58.3706V25.132H62.5106V25.924H60.8546V32.692H62.5826V33.484H58.2626V32.692ZM69.1875 22V0.759999H72.4275V22H69.1875ZM75.6675 22V0.759999H78.9075V22H75.6675ZM79.9875 22V0.759999H81.0675V22H79.9875ZM82.1475 22V0.759999H83.2275V22H82.1475ZM84.3075 22V0.759999H85.3875V22H84.3075ZM74.6955 25.132H75.5595L76.4595 30.784L77.8275 25.744H78.1155L79.4475 30.82L80.2035 25.132H80.9955L79.6995 33.484H79.3395L77.8995 28.048L76.4235 33.484H76.0275L74.6955 25.132ZM86.4844 22V0.759999H89.7244V22H86.4844ZM90.8044 22V0.759999H91.8844V22H90.8044ZM92.9644 22V0.759999H96.2044V22H92.9644ZM97.2844 22V0.759999H98.3644V22H97.2844ZM101.604 22V0.759999H102.684V22H101.604ZM95.1244 33.628C94.1644 33.628 93.4324 33.256 92.9284 32.512C92.4004 31.768 92.1364 30.712 92.1364 29.344C92.1364 28.024 92.4004 26.98 92.9284 26.212C93.4564 25.468 94.1884 25.096 95.1244 25.096C96.0604 25.096 96.7924 25.468 97.3204 26.212C97.8484 26.98 98.1124 28.024 98.1124 29.344C98.1124 30.712 97.8484 31.768 97.3204 32.512C96.8164 33.256 96.0844 33.628 95.1244 33.628ZM95.1244 32.8C95.7724 32.8 96.2644 32.512 96.6004 31.936C96.9604 31.336 97.1404 30.472 97.1404 29.344C97.1404 28.288 96.9604 27.448 96.6004 26.824C96.2404 26.224 95.7484 25.924 95.1244 25.924C94.5004 25.924 94.0084 26.224 93.6484 26.824C93.2884 27.448 93.1084 28.288 93.1084 29.344C93.1084 30.472 93.2764 31.336 93.6124 31.936C93.9724 32.512 94.4764 32.8 95.1244 32.8ZM103.781 22V0.759999H107.021V22H103.781ZM108.101 22V0.759999H109.181V22H108.101ZM110.261 22V0.759999H111.341V22H110.261ZM112.421 22V0.759999H115.661V22H112.421ZM118.901 22V0.759999H119.981V22H118.901ZM109.829 25.132H112.277C113.237 25.132 113.933 25.348 114.365 25.78C114.821 26.188 115.049 26.776 115.049 27.544C115.049 28.024 114.893 28.48 114.581 28.912C114.269 29.344 113.861 29.632 113.357 29.776L115.301 33.484H114.257L112.385 29.812H110.765V33.484H109.829V25.132ZM112.385 28.984C112.961 28.984 113.393 28.852 113.681 28.588C113.945 28.348 114.077 28 114.077 27.544C114.077 27.088 113.945 26.716 113.681 26.428C113.393 26.164 112.961 26.032 112.385 26.032H110.765V28.984H112.385ZM121.078 22V0.759999H124.318V22H121.078ZM125.398 22V0.759999H126.478V22H125.398ZM127.558 22V0.759999H128.638V22H127.558ZM129.718 22V0.759999H130.798V22H129.718ZM134.038 22V0.759999H137.278V22H134.038ZM128.602 29.308L127.918 30.028V33.484H126.946V25.132H128.062V25.24C128.014 25.288 127.978 25.348 127.954 25.42C127.93 25.468 127.918 25.576 127.918 25.744V28.984L131.41 25.096C131.626 25.12 131.854 25.132 132.094 25.132H132.454L129.286 28.732L132.67 33.484L131.482 33.52L128.602 29.308Z" fill="#282828"/>
</svg>
